<svg xmlns="http://www.w3.org/2000/svg" width="786" height="1149" xmlns:xlink="http://www.w3.org/1999/xlink">
    <g id="sapphire">
      <g id="sheen">
        <path id="sheen21" d="M780.5 388.5v372.109"/>
        <path id="sheen20" d="M741.5 389.5v372.109"/>
        <path id="sheen19" d="M703.5 316.5v516.109"/>
        <path id="sheen18" d="M664.5 284.5v581.109"/>
        <path id="sheen17" d="M625.5 268.5v667.109"/>
        <path id="sheen16" d="M586.5 199.5v751.109"/>
        <path id="sheen15" d="M548.5 162.5v824.109"/>
        <path id="sheen14" d="M509.5 120.5v909.109"/>
        <path id="sheen13" d="M470.5 81.5v986.109"/>
        <path id="sheen12" d="M431.5 41.5v1066.109"/>
        <path id="sheen11" d="M393.5.5v1148.109"/>
        <path id="sheen10" d="M354.5 41.5v1066.109"/>
        <path id="sheen9" d="M315.5 81.5v986.109"/>
        <path id="sheen8" d="M276.5 120.5v909.109"/>
        <path id="sheen7" d="M238.5 162.5v824.109"/>
        <path id="sheen6" d="M199.5 199.5v751.109"/>
        <path id="sheen5" d="M160.5 241.5v667.109"/>
        <path id="sheen4" d="M121.5 284.5v581.109"/>
        <path id="sheen3" d="M83.5 316.5v516.109"/>
        <path id="sheen2" d="M44.5 389.5v372.109"/>
        <path id="sheen1" d="M5.5 390.5v372.109"/>
      </g>
      <g id="gem">
        <path transform="translate(76 127)" id="gemborder" stroke="#FFF" stroke-width="20" d="M317.7557-12.8654L643.889 259.6528V643.515L317.7557 914.2415-9.498 643.5255v-383.883l327.2537-272.508z"/>
        <path id="outeroutline" fill="#FFF" stroke="#026FB8" stroke-width="11" d="M393.7446 127.157L76.502 391.3283v374.4913l317.2426 262.4345L709.889 765.82V391.3284z"/>
        <path id="vertex6" stroke="#026FB8" stroke-width="11" d="M199.496 466.019L96.9392 407.5003"/>
        <path id="vertex5" stroke="#026FB8" stroke-width="11" d="M202.7304 689.4922L99.161 748.5862"/>
        <path id="vertex4" stroke="#026FB8" stroke-width="11" d="M395.172 858.1132v121.678"/>
        <path id="vertex3" stroke="#026FB8" stroke-width="11" d="M587.7462 687.6587l96.7912 63.3297"/>
        <path id="vertex2" stroke="#026FB8" stroke-width="11" d="M589.614 463.001l106.2976-58.46"/>
        <path id="vertex1" stroke="#026FB8" stroke-width="11" d="M394.764 293.9554V176.0618"/>
        <path id="inneroutline" fill="transparent" stroke="#026FB8" stroke-width="11" d="M222.8946 477.4643V679.501L394.77 823.3514 566.6453 679.501V477.4644L394.77 328.6504z"/>
      </g>
      <g id="stars" fill="#FFF" stroke="#ADE7F2" stroke-width="11">
        <path id="bigstar" d="M598.381 209l-26.0572 64.0056L513 297.688l59.3238 24.0412 26.0573 67.1068 26.658-67.1068 58.7235-24.0412-58.7234-24.6824z"/>
        <path id="smallstar" d="M477.578 146l-13.9098 34.1675L432 193.3435l31.6682 12.8336 13.91 35.823 14.2302-35.823 31.3478-12.8332-31.3478-13.176z"/>
      </g>
    </g>
</svg>