<?xml version='1.0' encoding='iso-8859-1'?>
<!DOCTYPE svg PUBLIC '-//W3C//DTD SVG 1.1//EN' 'http://www.w3.org/Graphics/SVG/1.1/DTD/svg11.dtd'>
<svg version="1.1" xmlns="http://www.w3.org/2000/svg" viewBox="0 0 435 435" xmlns:xlink="http://www.w3.org/1999/xlink" enable-background="new 0 0 435 435">
  <g>
    <path d="m350.5,0h-266c-6.903,0-12.5,5.597-12.5,12.5v48c0,76.018 58.602,138.596 133,144.957v13.017c-15.11,5.203-26,19.552-26,36.406s10.89,31.203 26,36.406v65.531c-15.387,1.984-30.012,7.614-42.853,16.602-15.893,11.125-27.96,26.547-34.897,44.598-1.477,3.844-0.967,8.168 1.365,11.562 2.332,3.394 6.185,5.422 10.303,5.422h157.165c4.118,0 7.971-2.028 10.303-5.422s2.842-7.718 1.365-11.562c-6.937-18.051-19.004-33.473-34.897-44.598-12.841-8.989-27.466-14.618-42.853-16.602v-65.531c15.11-5.203 26-19.552 26-36.406s-10.89-31.203-26-36.406v-13.017c74.398-6.361 133-68.94 133-144.957v-48c-0.001-6.903-5.598-12.5-12.501-12.5zm-12.5,25v17.5h-241v-17.5h241zm-62.965,385h-115.07c13.339-17.857 34.665-29 57.535-29s44.196,11.143 57.535,29zm-57.535-141.62c-7.444,0-13.5-6.056-13.5-13.5s6.056-13.5 13.5-13.5 13.5,6.056 13.5,13.5-6.056,13.5-13.5,13.5zm0-87.38c-64.094,0-116.653-50.302-120.292-113.5h240.583c-3.638,63.198-56.197,113.5-120.291,113.5z"/>
    <path d="m130.503,83.999c-3.29,0-6.52,1.34-8.84,3.66-2.33,2.33-3.66,5.55-3.66,8.84s1.33,6.51 3.66,8.84c2.33,2.33 5.55,3.66 8.84,3.66s6.51-1.33 8.84-3.66c2.32-2.33 3.66-5.55 3.66-8.84s-1.34-6.51-3.66-8.84c-2.33-2.32-5.55-3.66-8.84-3.66z"/>
    <path d="m188.503,83.999c-3.29,0-6.52,1.34-8.84,3.66-2.33,2.33-3.66,5.55-3.66,8.84s1.33,6.51 3.66,8.84c2.33,2.33 5.55,3.66 8.84,3.66s6.51-1.33 8.84-3.66c2.32-2.33 3.66-5.55 3.66-8.84s-1.34-6.51-3.66-8.84c-2.33-2.32-5.55-3.66-8.84-3.66z"/>
    <path d="m313.343,87.659c-2.33-2.33-5.55-3.66-8.84-3.66s-6.51,1.33-8.84,3.66c-2.33,2.33-3.66,5.55-3.66,8.84s1.33,6.51 3.66,8.84c2.32,2.33 5.55,3.66 8.84,3.66s6.51-1.33 8.84-3.66c2.32-2.33 3.66-5.55 3.66-8.84s-1.34-6.51-3.66-8.84z"/>
    <path d="m246.503,83.999c-3.29,0-6.52,1.34-8.84,3.66-2.33,2.33-3.66,5.55-3.66,8.84s1.33,6.51 3.66,8.84c2.33,2.33 5.55,3.66 8.84,3.66s6.51-1.33 8.84-3.66c2.32-2.33 3.66-5.55 3.66-8.84s-1.34-6.51-3.66-8.84c-2.33-2.32-5.55-3.66-8.84-3.66z"/>
  </g>
</svg>
